<?xml version="1.0" encoding="UTF-8"?>
<svg viewBox="0 0 800 800" xmlns="http://www.w3.org/2000/svg" xmlns:xlink="http://www.w3.org/1999/xlink">
 <defs>
  <filter id="h" x="-.1562" y="-.09742" width="1.3124" height="1.1948">
   <feGaussianBlur stdDeviation=".87659"/>
  </filter>
  <linearGradient id="a">
   <stop stop-color="#b5b5b5" offset="0"/>
   <stop stop-color="#fff" offset="1"/>
  </linearGradient>
  <linearGradient id="f" x1="615.55" x2="569.51" y1="797.38" y2="644.88" gradientUnits="userSpaceOnUse">
   <stop stop-color="#bcff04" offset="0"/>
   <stop stop-color="#bc6b04" offset="1"/>
  </linearGradient>
  <linearGradient id="e" x2="0" y1="727.78" y2="784.71" gradientUnits="userSpaceOnUse">
   <stop stop-color="#414141" offset="0"/>
   <stop stop-color="#414141" stop-opacity="0" offset="1"/>
  </linearGradient>
  <linearGradient id="d" x2="0" y1="774.81" y2="634.65" gradientUnits="userSpaceOnUse">
   <stop stop-color="#1a274f" offset="0"/>
   <stop stop-color="#070a15" offset="1"/>
  </linearGradient>
  <linearGradient id="b" x1="53.918" x2="234.93" y1="783.62" y2="699.68" gradientUnits="userSpaceOnUse">
   <stop offset="0"/>
   <stop stop-opacity="0" offset="1"/>
  </linearGradient>
  <linearGradient id="c" x2="0" y1="981.86" y2="932.64" gradientUnits="userSpaceOnUse" xlink:href="#a"/>
  <linearGradient id="g" x2="0" y1="447.4" y2="601.21" gradientUnits="userSpaceOnUse" xlink:href="#a"/>
 </defs>
 <g transform="translate(0 -252.36)">
  <path transform="matrix(22.787 0 0 22.787 -2874.7 -9261.2)" d="m133.9375,419.0625a.26291,.26291 0 0,0 -.0625.0625 .26291,.26291 0 0,0 -.0625.15625l-1.0625,10.59375v.0312c-.98277,1.71003-1.5625,3.73367-1.5625,6.03125 0,1.43493.2242,2.82986.625,4.125-.52939.58384-.625,1.35157-.625,2.28125 0,2.36634 1.45542,4.23846 3.75,5.46875s5.4266,1.84375 8.875,1.84375 6.58042-.61346 8.875-1.84375 3.75-3.10241 3.75-5.46875c0-.82871-.10725-1.57168-.6875-2.15625 .42824-1.33089.6875-2.76362.6875-4.25 0-2.29758-.57973-4.32122-1.5625-6.03125v-.0312l-1.0625-10.59375a.26291,.26291 0 0,0 0-.0312 .26291,.26291 0 0,0 -.0937-.15625 .26291,.26291 0 0,0 -.125-.0312 .26291,.26291 0 0,0 -.21875.0625l-5.71875,5.375c-1.21615-.32871-2.50285-.5-3.84375-.5-1.35825,0-2.65009.1945-3.875.53125l-5.68755-5.40635a.26291,.26291 0 0,0 -.15625-.0625 .26291,.26291 0 0,0 -.15625,0z"/>
  <path d="m402.62 604.6h254.64v192.78h-254.64z" fill="url(#f)"/>
  <path transform="matrix(11.59 0 0 21.925 -1227.2 -8880.9)" d="m155.63 436.77a4.2932 3.062 0 1 1 -8.5863 0 4.2932 3.062 0 1 1 8.5863 0z" fill-rule="evenodd"/>
  <path d="m180.06 293.82-28.931 290.54 178.99-148.95-150.06-141.59z" fill="#606060"/>
  <path d="m402.38 406.36c-155.63 0-281.99 102.51-281.99 266.33 0 33.315 5.332 65.529 14.954 95.422-12.692 11.939-14.954 28.307-14.954 50.559 0 102.94 126.32 160.94 281.99 160.94s281.99-57.991 281.99-160.94c0-19.665-2.3851-35.571-16.378-47.711 10.241-30.735 16.378-63.853 16.378-98.27 0-163.82-126.37-266.33-281.99-266.33zm163.07 255.65c5.0572 0.0139 10.289 0.79527 15.666 1.4242 51.187 5.9794 64.801 21.583 64.801 40.59 0 25.164-19.676 40.932-24.771 41.2-69.947 3.6881-148.41 4.8159-160.38-7.0194-11.217-11.096 28.822-76.4 104.68-76.195z" fill="#606060"/>
  <path d="m401.02 744.61c-123.03 0-227.66 10.275-267.75 25.636-5.8247 6.3221-8.9071 13.954-10.682 22.787 28.62 17.933 142.39 32.045 278.43 32.045 140.45 0 256.79-14.66 280.57-33.469-2.374-7.6955-6.7168-14.74-13.53-20.651 0.0684-0.20508-0.0683-0.49904 0-0.71097-27.492-10.333-84.029-18.505-155.95-22.787-4.3273-0.25749-9.0967-0.48309-13.53-0.71097-30.548-1.57-63.146-2.1352-97.558-2.1352z" fill="url(#e)" opacity=".82"/>
  <path d="m320.07 895.64c35.596 4.0507 50.423-16.421 81.713-34.698 33.088 19.489 47.307 39.219 82.896 33.671" fill="none" stroke="#000" stroke-linecap="round" stroke-width="11.394"/>
  <path d="m355.23 787.06s19.29-5.1481 47.152-5.1483 47.153 5.1483 47.153 5.1483c-15.718 16.353-35.606 49.059-47.153 49.059s-31.508-32.619-47.152-49.059z"/>
  <path d="m402.38 829.26v32.285" fill="none" stroke="#000" stroke-width="11.394"/>
  <path d="m186.79 332.01-16.723 229.5 75.227-47.223-58.504-182.28z" fill="#cecece"/>
  <path d="m389.63 406.54c-14.416 0.46713-29.114 2.1124-40.59 4.0056v245.05h40.59v-249.06zm25.636 0.0911v249.68h40.59v-245.77c-8.8328-1.6475-24.233-3.2146-40.59-3.9165z" fill="url(#g)" opacity=".9469"/>
  <path d="m460.17 709.62s33.189-28.749 63.301-43.16 106.46-15.825 106.46-15.825" fill="none" stroke="#000" stroke-linecap="round" stroke-width="15.951"/>
  <path d="m624.69 293.82 28.931 290.54-178.99-148.95 150.06-141.59z" fill="#606060"/>
  <path d="m617.97 332.01 16.723 229.5-75.227-47.223 58.504-182.28z" fill="#cecece"/>
  <path d="m765.62 758.85-164.5 54.832 2.1352 6.4089 162.36-54.12v-7.121z" fill="#fff"/>
  <path d="m765.62 827.22-164.5 14.242 0.71096 6.4089 163.78-14.242v-6.4089z" fill="#fff"/>
  <path d="m598.98 863.53-0.71097 6.4089 167.34 19.939v-6.4089l-166.63-19.939z" fill="#fff"/>
  <path d="m403.05 932.64-79.368 41.609s52.912 7.6114 79.368 7.6114 79.368-7.6114 79.368-7.6114l-79.368-41.609z" fill="url(#c)"/>
  <path transform="matrix(14.045 3.8877 -1.5997 5.7794 -1019.6 -2427.8)" d="m165.54 427.99a1.9196 1.6964 0 1 1 -3.8393 0 1.9196 1.6964 0 1 1 3.8393 0z" fill="#fff" opacity=".9469" stroke="#fff" stroke-linecap="round" stroke-width=".73128"/>
  <path d="m402.38 406.36c-155.63 0-281.99 102.51-281.99 266.33 0 33.315 5.332 65.529 14.954 95.422-12.692 11.939-14.954 28.307-14.954 50.559 0 102.94 126.32 160.94 281.99 160.94s281.99-57.991 281.99-160.94c0-19.665-2.3851-35.571-16.378-47.711 10.241-30.735 16.378-63.853 16.378-98.27 0-163.82-126.37-266.33-281.99-266.33zm163.07 255.65c5.0572 0.0139 10.289 0.79527 15.666 1.4242 51.187 5.9794 64.801 21.583 64.801 40.59 0 25.164-19.676 40.932-24.771 41.2-69.947 3.6881-148.41 4.8159-160.38-7.0194-11.217-11.096 28.822-76.4 104.68-76.195z" fill="url(#b)"/>
 </g>
 <g transform="translate(0 -252.36)">
  <path transform="matrix(22.787 0 0 22.787 -328.79 -173.39)" d="m22.08963,26.84804c-.34721-.0107-.65625.0625-.65625.0625l-.96875,5.6875-.3125,1.46875-.28125,1-.28125,4.53125h.0312l4.90625,4.0625 .21875-.15625 .0312.0312 6.40625-1.75 .65625-3.96875-.625-1.90625-.0312-.3125-7.84375-.71875-2.15625-.59375 .46875-2.3125c0,0 .83548-1.28186 1.21875-1.75s.89145-1.78683.1875-2.875c-.23552-.3827-.62154-.48932-.96875-.5zm-3.375,15.75-.34375,1.4375 1,2.625 2.3125,1.78125 .84375-.96875 2.09375.5h.0312l1.1875-.21875-.0937-.21875 .6875.0312c.52766-.0619.34588-.73085 0-.78125l-.8125-.0625v-.25l-1.625-.8125v-.0312h-.0312l-1.8125-.75-.96875-2.125-2.46875-.15625z" filter="url(#h)" opacity=".38053"/>
  <path d="m186.84 507.05c-8.7337 10.668-27.584 39.437-27.584 39.437l-11.948 55.663-13.925-8.7191 6.6145-33.21 14.115-128.85s26.281-7.7475 37.015 9.6942c16.041 24.796 4.4463 55.318-4.2874 65.986z" fill="#0c1127"/>
  <path d="m98.066 704.7s-14.696 31.772-13.423 50.654c1.39 20.629 21.148 41.29 21.148 41.29" fill="none" stroke="#17204d" stroke-width="9.1149"/>
  <path d="m111.16 708.39s-14.696 31.772-13.423 50.654c1.39 20.629 21.148 41.29 21.148 41.29" fill="none" stroke="#17204d" stroke-width="9.1149"/>
  <path d="m92.16 788.6 56.396 4.0283 22.055 47.788-6.3916 30.432 14.695 28.921-19.506 22.016-52.142-40.536-22.95-60.054z" fill="#0c1127"/>
  <path d="m96.189 593.07 34.415-17.533-17.679 145.05-28.23-12.344-6.2152-52.395z" fill="#0c1127"/>
  <path d="m181.44 636.98-34.646 70.76-34.6 12.797 5.9274-103.85z" fill="#202e6a"/>
  <path d="m230.46 809.17-6.0453 4.1434-111.89-93.202 34.435-12.685 83.499 101.74z" fill="#1a2555"/>
  <path d="m179.41 503c-7.91 18.84-22.599 42.641-22.599 42.641l-11.592 53.526-20.334-5.1586 6.6145-33.21 22.215-129.47s14.621-2.4957 25.355 14.946 8.2513 37.889 0.34181 56.728z" fill="#202e6a"/>
  <path d="m197.51 612.94 178.56 16.153 1.0072 7.0495-195.61 4.0596-63.712-23.318 7.3444-23.313z" fill="#08060c"/>
  <path d="m377.04 634.95 14.18 44.523-14.895 90.497-146.27 39.967-83.515-102.42 33.35-68.892z" fill="url(#d)"/>
  <path d="m267.65 884.31c7.8817 1.1485 11.933 16.231-0.0911 17.642l-28.334-0.98669-12.645-19.82 41.081 3.1647z"/>
  <path d="m170.3 840.75-6.4089 29.908 14.954 29.196 47.711 11.394 27.772-4.9847-4.9847-12.818v-16.378l-37.742-19.227z" fill="#202e6a"/>
  <path d="m163.89 870.65 14.954 29.196 47.711 11.394 27.772-4.9847-4.9847-12.818-31.097-3.1772z" fill="#192351"/>
 </g>
</svg>
